# 3ds Max Wavefront OBJ Exporter v0.97b - (c)2007 guruware
# File Created: 05.06.2020 07:34:46

mtllib LE.mtl

#
# object Box100
#

v  -6.7500 2.5000 -15.7500
v  -2.2500 2.5000 -15.7500
v  -2.2500 2.5000 -20.2500
v  -6.7500 2.5000 -20.2500
v  -6.7500 0.0000 -15.7500
v  -2.2500 0.0000 -15.7500
v  -2.2500 0.0000 -20.2500
v  -6.7500 0.0000 -20.2500
v  2.2500 2.5000 -15.7500
v  2.2500 2.5000 -20.2500
v  2.2500 0.0000 -15.7500
v  2.2500 0.0000 -20.2500
v  6.7500 2.5000 -15.7500
v  6.7500 2.5000 -20.2500
v  6.7500 0.0000 -15.7500
v  6.7500 0.0000 -20.2500
# 16 vertices

vn 0.0000 1.0000 -0.0000
vn 0.0000 0.0000 1.0000
vn 0.0000 0.0000 -1.0000
vn -1.0000 0.0000 -0.0000
vn 1.0000 0.0000 -0.0000
# 5 vertex normals

vt 0.0000 0.0000 0.0000
vt 1.0000 0.0000 0.0000
vt 1.0000 1.0000 0.0000
vt 0.0000 1.0000 0.0000
# 4 texture coords

o Box100
g Box100
usemtl Material__2201
s 4
f 1/1/1 2/2/1 3/3/1 
f 3/3/1 4/4/1 1/1/1 
s 8
f 5/1/2 6/2/2 2/3/2 
f 2/3/2 1/4/2 5/1/2 
s 32
f 7/1/3 8/2/3 4/3/3 
f 4/3/3 3/4/3 7/1/3 
s 64
f 8/1/4 5/2/4 1/3/4 
f 1/3/4 4/4/4 8/1/4 
s 4
f 2/1/1 9/2/1 10/3/1 
f 10/3/1 3/4/1 2/1/1 
s 8
f 6/1/2 11/2/2 9/3/2 
f 9/3/2 2/4/2 6/1/2 
s 32
f 12/1/3 7/2/3 3/3/3 
f 3/3/3 10/4/3 12/1/3 
s 4
f 9/1/1 13/2/1 14/3/1 
f 14/3/1 10/4/1 9/1/1 
s 8
f 11/1/2 15/2/2 13/3/2 
f 13/3/2 9/4/2 11/1/2 
s 16
f 15/1/5 16/2/5 14/3/5 
f 14/3/5 13/4/5 15/1/5 
s 32
f 16/1/3 12/2/3 10/3/3 
f 10/3/3 14/4/3 16/1/3 
# 22 faces

