# 3ds Max Wavefront OBJ Exporter v0.97b - (c)2007 guruware
# File Created: 05.06.2020 07:35:09

mtllib LE.mtl

#
# object Box114
#

v  24.7500 2.5000 -15.7500
v  24.7500 2.5000 -11.2500
v  29.2500 2.5000 -11.2500
v  29.2500 2.5000 -15.7500
v  24.7500 0.0000 -15.7500
v  24.7500 0.0000 -11.2500
v  29.2500 0.0000 -11.2500
v  29.2500 0.0000 -15.7500
v  24.7500 2.5000 -6.7500
v  29.2500 2.5000 -6.7500
v  24.7500 0.0000 -6.7500
v  29.2500 0.0000 -6.7500
v  24.7500 2.5000 -2.2500
v  29.2500 2.5000 -2.2500
v  24.7500 0.0000 -2.2500
v  29.2500 0.0000 -2.2500
v  24.7500 2.5000 2.2500
v  29.2500 2.5000 2.2500
v  24.7500 0.0000 2.2500
v  29.2500 0.0000 2.2500
v  24.7500 2.5000 6.7500
v  29.2500 2.5000 6.7500
v  24.7500 0.0000 6.7500
v  29.2500 0.0000 6.7500
v  24.7500 2.5000 11.2500
v  29.2500 2.5000 11.2500
v  24.7500 0.0000 11.2500
v  29.2500 0.0000 11.2500
v  24.7500 2.5000 15.7500
v  29.2500 2.5000 15.7500
v  24.7500 0.0000 15.7500
v  29.2500 0.0000 15.7500
# 32 vertices

vn 0.0000 1.0000 -0.0000
vn -1.0000 0.0000 -0.0000
vn 1.0000 0.0000 0.0000
# 3 vertex normals

vt 0.0000 0.0000 0.0000
vt 1.0000 0.0000 0.0000
vt 1.0000 1.0000 0.0000
vt 0.0000 1.0000 0.0000
# 4 texture coords

o Box114
g Box114
usemtl Material__2200
s 4
f 1/1/1 2/2/1 3/3/1 
f 3/3/1 4/4/1 1/1/1 
s 8
f 5/1/2 6/2/2 2/3/2 
f 2/3/2 1/4/2 5/1/2 
s 32
f 7/1/3 8/2/3 4/3/3 
f 4/3/3 3/4/3 7/1/3 
s 4
f 2/1/1 9/2/1 10/3/1 
f 10/3/1 3/4/1 2/1/1 
s 8
f 6/1/2 11/2/2 9/3/2 
f 9/3/2 2/4/2 6/1/2 
s 32
f 12/1/3 7/2/3 3/3/3 
f 3/3/3 10/4/3 12/1/3 
s 4
f 9/1/1 13/2/1 14/3/1 
f 14/3/1 10/4/1 9/1/1 
s 8
f 11/1/2 15/2/2 13/3/2 
f 13/3/2 9/4/2 11/1/2 
s 32
f 16/1/3 12/2/3 10/3/3 
f 10/3/3 14/4/3 16/1/3 
s 4
f 13/1/1 17/2/1 18/3/1 
f 18/3/1 14/4/1 13/1/1 
s 8
f 15/1/2 19/2/2 17/3/2 
f 17/3/2 13/4/2 15/1/2 
s 32
f 20/1/3 16/2/3 14/3/3 
f 14/3/3 18/4/3 20/1/3 
s 4
f 17/1/1 21/2/1 22/3/1 
f 22/3/1 18/4/1 17/1/1 
s 8
f 19/1/2 23/2/2 21/3/2 
f 21/3/2 17/4/2 19/1/2 
s 32
f 24/1/3 20/2/3 18/3/3 
f 18/3/3 22/4/3 24/1/3 
s 4
f 21/1/1 25/2/1 26/3/1 
f 26/3/1 22/4/1 21/1/1 
s 8
f 23/1/2 27/2/2 25/3/2 
f 25/3/2 21/4/2 23/1/2 
s 32
f 28/1/3 24/2/3 22/3/3 
f 22/3/3 26/4/3 28/1/3 
s 4
f 25/1/1 29/2/1 30/3/1 
f 30/3/1 26/4/1 25/1/1 
s 8
f 27/1/2 31/2/2 29/3/2 
f 29/3/2 25/4/2 27/1/2 
s 32
f 32/1/3 28/2/3 26/3/3 
f 26/3/3 30/4/3 32/1/3 
# 42 faces

