# 3ds Max Wavefront OBJ Exporter v0.97b - (c)2007 guruware
# File Created: 05.06.2020 07:33:17

mtllib LE.mtl

#
# object Box093
#

v  11.2500 2.5000 2.2500
v  6.7500 2.5000 2.2500
v  6.7500 2.5000 6.7500
v  11.2500 2.5000 6.7500
v  11.2500 0.0000 2.2500
v  6.7500 0.0000 2.2500
v  6.7500 0.0000 6.7500
v  11.2500 0.0000 6.7500
v  6.7500 2.5000 11.2500
v  11.2500 2.5000 11.2500
v  6.7500 0.0000 11.2500
v  11.2500 0.0000 11.2500
# 12 vertices

vn 0.0000 1.0000 -0.0000
vn -0.0000 0.0000 -1.0000
vn -1.0000 0.0000 0.0000
vn 1.0000 0.0000 -0.0000
vn 0.0000 0.0000 1.0000
# 5 vertex normals

vt 0.0000 0.0000 0.0000
vt 1.0000 0.0000 0.0000
vt 1.0000 1.0000 0.0000
vt 0.0000 1.0000 0.0000
# 4 texture coords

o Box093
g Box093
usemtl Material__2200
s 4
f 1/1/1 2/2/1 3/3/1 
f 3/3/1 4/4/1 1/1/1 
s 8
f 5/1/2 6/2/2 2/3/2 
f 2/3/2 1/4/2 5/1/2 
s 16
f 6/1/3 7/2/3 3/3/3 
f 3/3/3 2/4/3 6/1/3 
s 64
f 8/1/4 5/2/4 1/3/4 
f 1/3/4 4/4/4 8/1/4 
s 4
f 4/1/1 3/2/1 9/3/1 
f 9/3/1 10/4/1 4/1/1 
s 32
f 11/1/5 12/2/5 10/3/5 
f 10/3/5 9/4/5 11/1/5 
s 64
f 12/1/4 8/2/4 4/3/4 
f 4/3/4 10/4/4 12/1/4 
# 14 faces

